<svg xmlns="http://www.w3.org/2000/svg" viewBox="0 0 64 64" width="64" height="64">
  <rect width="64" height="64" rx="12" fill="#16294a"/>
  <rect y="50" width="64" height="14" fill="#c8102e"/>
  <rect y="50" width="64" height="14" fill="none"/>
  <path d="M10 40 c1 -7 5 -11 13 -13 l7 -1 c4 -6 10 -9 17 -10 l7 0 c2 0 3 2 2 4 l-2 4 5 1 c4 1 6 3 6 7 l0 4 c0 2 -1 3 -3 3 l-4 0 c-1 -4 -4 -7 -8 -7 c-4 0 -7 3 -8 7 l-14 0 c-1 -4 -4 -7 -8 -7 c-4 0 -7 3 -8 7 l-1 0 c-2 0 -3 -1 -3 -3 z" fill="#ffffff" transform="translate(0,-4)"/>
  <path d="M34 20 l-4 8 8 0 3 -6 c1 -2 0 -3 -2 -3 z" fill="#c8102e" transform="translate(0,-4)"/>
  <circle cx="22" cy="41" r="4.5" fill="#ffffff"/>
  <circle cx="43" cy="41" r="4.5" fill="#ffffff"/>
  <text x="32" y="60" text-anchor="middle" font-family="Arial Narrow, Arial, sans-serif" font-weight="bold" font-size="10" fill="#ffffff" letter-spacing="1.5">LEVEL</text>
</svg>
